<svg xmlns="http://www.w3.org/2000/svg" xmlns:xlink="http://www.w3.org/1999/xlink" width="300" zoomAndPan="magnify" viewBox="0 0 224.87999 63.749997" height="85" preserveAspectRatio="xMidYMid meet" version="1.0"><defs><g/><clipPath id="3bc6d33f22"><path d="M 1.125 2.320312 L 41.46875 2.320312 L 41.46875 60.59375 L 1.125 60.59375 Z M 1.125 2.320312 " clip-rule="nonzero"/></clipPath></defs><g clip-path="url(#3bc6d33f22)"><path fill="#5e17eb" d="M 27.527344 42.871094 L 27.527344 52.851562 C 34.824219 52.851562 40.796875 47.152344 41.234375 39.957031 L 30.453125 39.957031 C 28.835938 39.957031 27.527344 41.265625 27.527344 42.871094 Z M 27.527344 11.738281 L 27.527344 26.5625 L 4.796875 26.5625 C 2.769531 26.5625 1.125 28.207031 1.125 30.234375 L 1.125 60.582031 L 10.289062 57.546875 C 13.015625 56.636719 14.84375 54.097656 14.84375 51.222656 L 14.84375 37.839844 L 37.574219 37.839844 C 39.601562 37.839844 41.246094 36.199219 41.246094 34.167969 L 41.246094 2.390625 L 32.085938 5.414062 C 29.371094 6.324219 27.527344 8.863281 27.527344 11.738281 Z M 14.84375 12.136719 C 7.648438 12.136719 1.738281 17.699219 1.175781 24.757812 L 11.945312 24.757812 C 13.550781 24.757812 14.855469 23.449219 14.855469 21.84375 L 14.855469 12.136719 Z M 14.84375 12.136719 " fill-opacity="1" fill-rule="nonzero"/></g><g fill="#5e17eb" fill-opacity="1"><g transform="translate(58.443281, 27.787548)"><g><path d="M 11.125 -19.5 L 15.171875 -19.5 L 15.171875 0 L 11.125 0 L 11.125 -8.203125 L 5.453125 -8.203125 L 5.453125 0 L 1.40625 0 L 1.40625 -19.5 L 5.453125 -19.5 L 5.453125 -11.703125 L 11.125 -11.703125 Z M 11.125 -19.5 "/></g></g></g><g fill="#5e17eb" fill-opacity="1"><g transform="translate(77.743003, 27.787548)"><g><path d="M 5.21875 -19.546875 L 10.796875 -19.546875 L 15.671875 0 L 11.34375 0 L 10.40625 -4.203125 L 5.625 -4.203125 L 4.703125 0 L 0.34375 0 Z M 8 -14.875 L 6.40625 -7.703125 L 9.59375 -7.703125 Z M 8 -14.875 "/></g></g></g><g fill="#5e17eb" fill-opacity="1"><g transform="translate(96.492756, 27.787548)"><g><path d="M 5.078125 -9.25 C 5.078125 -7.945312 5.160156 -6.84375 5.328125 -5.9375 C 5.503906 -5.039062 5.828125 -4.351562 6.296875 -3.875 C 6.765625 -3.40625 7.429688 -3.171875 8.296875 -3.171875 L 8.53125 -3.171875 C 9.507812 -3.171875 10.203125 -3.488281 10.609375 -4.125 C 11.015625 -4.757812 11.21875 -5.601562 11.21875 -6.65625 L 15.28125 -6.65625 L 15.28125 -6.421875 C 15.28125 -4.023438 14.695312 -2.300781 13.53125 -1.25 C 12.363281 -0.195312 10.617188 0.328125 8.296875 0.328125 C 5.765625 0.328125 3.910156 -0.425781 2.734375 -1.9375 C 1.554688 -3.445312 0.96875 -5.882812 0.96875 -9.25 L 0.96875 -10.25 C 0.96875 -13.632812 1.554688 -16.078125 2.734375 -17.578125 C 3.910156 -19.078125 5.765625 -19.828125 8.296875 -19.828125 C 10.617188 -19.828125 12.363281 -19.296875 13.53125 -18.234375 C 14.695312 -17.179688 15.28125 -15.4375 15.28125 -13 L 15.28125 -12.09375 L 11.21875 -12.09375 C 11.21875 -13.425781 11.035156 -14.460938 10.671875 -15.203125 C 10.304688 -15.953125 9.59375 -16.328125 8.53125 -16.328125 L 8.296875 -16.328125 C 7.429688 -16.328125 6.765625 -16.09375 6.296875 -15.625 C 5.828125 -15.15625 5.503906 -14.46875 5.328125 -13.5625 C 5.160156 -12.65625 5.078125 -11.550781 5.078125 -10.25 Z M 5.078125 -9.25 "/></g></g></g><g fill="#5e17eb" fill-opacity="1"><g transform="translate(115.467493, 27.787548)"><g><path d="M 5.453125 -19.5 L 5.453125 -11.84375 L 10.25 -19.5 L 15.15625 -19.5 L 9.671875 -11.671875 L 15.15625 0 L 10.65625 0 L 7.09375 -7.96875 L 5.453125 -5.625 L 5.453125 0 L 1.40625 0 L 1.40625 -19.5 Z M 5.453125 -19.5 "/></g></g></g><g fill="#5e17eb" fill-opacity="1"><g transform="translate(133.817276, 27.787548)"><g><path d="M 5.21875 -19.546875 L 10.796875 -19.546875 L 15.671875 0 L 11.34375 0 L 10.40625 -4.203125 L 5.625 -4.203125 L 4.703125 0 L 0.34375 0 Z M 8 -14.875 L 6.40625 -7.703125 L 9.59375 -7.703125 Z M 8 -14.875 "/></g></g></g><g fill="#5e17eb" fill-opacity="1"><g transform="translate(152.567028, 27.787548)"><g><path d="M 8.96875 -16 L 8.96875 0 L 4.921875 0 L 4.921875 -16 L 0.421875 -16 L 0.421875 -19.5 L 13.5 -19.5 L 13.5 -16 Z M 8.96875 -16 "/></g></g></g><g fill="#5e17eb" fill-opacity="1"><g transform="translate(169.216929, 27.787548)"><g><path d="M 11.125 -19.5 L 15.171875 -19.5 L 15.171875 0 L 11.125 0 L 11.125 -8.203125 L 5.453125 -8.203125 L 5.453125 0 L 1.40625 0 L 1.40625 -19.5 L 5.453125 -19.5 L 5.453125 -11.703125 L 11.125 -11.703125 Z M 11.125 -19.5 "/></g></g></g><g fill="#5e17eb" fill-opacity="1"><g transform="translate(188.516652, 27.787548)"><g><path d="M 8.40625 0.328125 C 5.882812 0.328125 4.015625 -0.425781 2.796875 -1.9375 C 1.578125 -3.445312 0.96875 -5.882812 0.96875 -9.25 L 0.96875 -10.25 C 0.96875 -13.632812 1.578125 -16.078125 2.796875 -17.578125 C 4.015625 -19.078125 5.882812 -19.828125 8.40625 -19.828125 C 10.9375 -19.828125 12.804688 -19.078125 14.015625 -17.578125 C 15.234375 -16.078125 15.84375 -13.632812 15.84375 -10.25 L 15.84375 -9.25 C 15.84375 -5.882812 15.234375 -3.445312 14.015625 -1.9375 C 12.804688 -0.425781 10.9375 0.328125 8.40625 0.328125 Z M 8.296875 -3.171875 L 8.53125 -3.171875 C 9.78125 -3.171875 10.625 -3.695312 11.0625 -4.75 C 11.5 -5.800781 11.71875 -7.300781 11.71875 -9.25 L 11.71875 -10.25 C 11.71875 -12.195312 11.5 -13.695312 11.0625 -14.75 C 10.625 -15.800781 9.78125 -16.328125 8.53125 -16.328125 L 8.296875 -16.328125 C 7.046875 -16.328125 6.195312 -15.800781 5.75 -14.75 C 5.300781 -13.695312 5.078125 -12.195312 5.078125 -10.25 L 5.078125 -9.25 C 5.078125 -7.300781 5.300781 -5.800781 5.75 -4.75 C 6.195312 -3.695312 7.046875 -3.171875 8.296875 -3.171875 Z M 8.296875 -3.171875 "/></g></g></g><g fill="#5e17eb" fill-opacity="1"><g transform="translate(208.066355, 27.787548)"><g><path d="M 15.671875 -19.5 L 15.671875 0 L 11.40625 0 L 5.09375 -12.09375 L 5.21875 -8.171875 L 5.21875 0 L 1.40625 0 L 1.40625 -19.5 L 5.671875 -19.5 L 11.953125 -7.40625 L 11.828125 -11.328125 L 11.828125 -19.5 Z M 15.671875 -19.5 "/></g></g></g><g fill="#5e17eb" fill-opacity="1"><g transform="translate(58.443281, 53.061357)"><g><path d="M 14.53125 0.046875 L 11.703125 -14.875 L 8.875 0.046875 L 3.703125 0.046875 L 0.46875 -19.5 L 4.703125 -19.5 L 6.578125 -5.46875 L 9.203125 -19.5 L 14.21875 -19.5 L 16.84375 -5.46875 L 18.71875 -19.5 L 22.953125 -19.5 L 19.71875 0.046875 Z M 14.53125 0.046875 "/></g></g></g><g fill="#5e17eb" fill-opacity="1"><g transform="translate(84.592528, 53.061357)"><g><path d="M 1.40625 -19.5 L 13.328125 -19.5 L 13.328125 -16 L 5.453125 -16 L 5.453125 -11.703125 L 12.078125 -11.703125 L 12.078125 -8.203125 L 5.453125 -8.203125 L 5.453125 -3.5 L 13.328125 -3.5 L 13.328125 0 L 1.40625 0 Z M 1.40625 -19.5 "/></g></g></g><g fill="#5e17eb" fill-opacity="1"><g transform="translate(101.642399, 53.061357)"><g><path d="M 1.40625 -19.5 L 13.328125 -19.5 L 13.328125 -16 L 5.453125 -16 L 5.453125 -11.703125 L 12.078125 -11.703125 L 12.078125 -8.203125 L 5.453125 -8.203125 L 5.453125 -3.5 L 13.328125 -3.5 L 13.328125 0 L 1.40625 0 Z M 1.40625 -19.5 "/></g></g></g><g fill="#5e17eb" fill-opacity="1"><g transform="translate(118.692271, 53.061357)"><g><path d="M 5.453125 -19.5 L 5.453125 -11.84375 L 10.25 -19.5 L 15.15625 -19.5 L 9.671875 -11.671875 L 15.15625 0 L 10.65625 0 L 7.09375 -7.96875 L 5.453125 -5.625 L 5.453125 0 L 1.40625 0 L 1.40625 -19.5 Z M 5.453125 -19.5 "/></g></g></g><g fill="#5e17eb" fill-opacity="1"><g transform="translate(137.042053, 53.061357)"><g><path d="M 12.65625 0 L 1.40625 0 L 1.40625 -19.5 L 5.453125 -19.5 L 5.453125 -3.5 L 12.65625 -3.5 Z M 12.65625 0 "/></g></g></g><g fill="#5e17eb" fill-opacity="1"><g transform="translate(152.792014, 53.061357)"><g><path d="M 9.84375 -5.96875 L 9.84375 0 L 5.796875 0 L 5.796875 -5.96875 L 0.203125 -19.5 L 4.625 -19.5 L 7.828125 -10.96875 L 11 -19.5 L 15.421875 -19.5 Z M 9.84375 -5.96875 "/></g></g></g></svg>