<svg width="311" height="73" viewBox="0 0 311 73" fill="none" xmlns="http://www.w3.org/2000/svg">
<path d="M240.957 53.5681V22.0714L249.905 20.4012V53.5681H240.957ZM245.61 15.7483C243.94 15.7483 242.747 15.271 241.554 14.078C240.48 13.0042 239.883 11.5726 239.883 10.0216C239.883 8.47062 240.48 7.03895 241.554 5.9652C242.389 4.89145 243.82 4.29492 245.61 4.29492C247.4 4.29492 248.712 4.89145 249.666 5.9652C250.74 7.03895 251.337 8.35131 251.337 9.90228C251.337 11.6919 250.74 13.0042 249.666 13.9587C248.473 15.271 247.28 15.7483 245.61 15.7483Z" fill="#1A1A1A"/>
<path d="M220.377 53.8069C211.907 53.8069 204.987 46.8872 204.987 38.4165V19.6855H213.935V38.4165C213.935 41.8764 216.917 44.859 220.377 44.859C223.837 44.859 226.82 41.8764 226.82 38.4165V19.6855H235.768V38.4165C235.887 46.8872 228.967 53.8069 220.377 53.8069Z" fill="#1A1A1A"/>
<path d="M151.749 53.8071V35.0761C151.749 31.6163 148.766 28.6336 145.306 28.6336C141.846 28.6336 139.102 31.3777 139.102 34.8375V53.5685H130.155V34.8375C130.155 26.2475 136.836 19.5664 145.426 19.5664C153.896 19.5664 160.816 26.4861 160.816 34.9568V53.6878H151.749V53.8071Z" fill="#1A1A1A"/>
<path d="M265.629 52.7331C262.129 52.7331 259.178 51.915 256.801 49.2732C255.846 47.7222 255.369 46.5292 255.131 45.3361C254.892 44.0238 254.653 42.4728 254.653 40.9218V1.67028L263.363 0V40.9218C263.363 41.9956 263.721 43.1886 264.198 44.1431C265.038 45.544 267.44 45.2168 268.851 45.2168L269.811 46.7931C270.461 47.8592 271.216 48.8578 272.064 49.7739L273.821 51.6712C271.115 52.0893 268.375 52.7331 265.629 52.7331Z" fill="#1A1A1A"/>
<path d="M287.755 53.091C285.13 53.091 282.863 52.6138 280.596 51.7786C278.091 50.8242 276.182 49.6311 274.75 48.1994C272.961 46.4099 271.768 44.6203 270.932 42.5921C269.978 40.3253 269.62 38.0585 269.62 35.4338C269.62 32.809 270.097 30.5422 270.932 28.2754C271.768 26.2472 272.961 24.4576 274.75 22.6681C276.54 21.1171 278.329 19.924 280.596 19.0889C282.744 18.2538 285.249 17.7765 287.755 17.7765C290.379 17.7765 292.646 18.2538 294.913 19.0889C295.748 19.4468 296.464 19.6854 297.06 20.0433V1.67028L305.77 0V40.9218C305.77 41.9956 306.128 43.1886 306.605 44.1431C306.963 44.7396 308.037 45.2168 309.707 45.2168H310.423V52.3751L310.065 52.4944C309.11 52.7331 308.037 52.7331 307.321 52.7331C304.815 52.7331 303.145 52.4944 301.952 51.7786C300.52 51.4207 299.566 50.4663 298.492 49.2732C297.538 47.7222 297.06 46.5292 296.822 45.3361C296.583 44.0238 296.345 42.4728 296.345 40.9218V33.7635C296.345 33.2863 296.345 32.3318 296.225 31.9739C295.748 30.9001 295.151 29.8264 294.555 28.7526C293.958 27.7982 293.004 27.2017 291.93 26.4858C291.095 26.0086 289.783 25.6507 287.993 25.6507C286.204 25.6507 285.011 25.8893 284.175 26.4858C283.221 27.0824 282.266 27.6789 281.431 28.7526C280.596 29.5878 280.119 30.6615 279.761 31.8546C279.284 33.1669 279.165 34.2407 279.165 35.4338C279.165 36.5075 279.403 37.8199 279.761 39.0129C280.238 40.0867 280.596 41.0411 281.431 42.1149C284.575 45.8878 290.794 46.6522 294.078 42.7114L294.623 42.1149C294.623 43.8478 294.793 44.917 295.108 46.3343C295.857 48.5027 295.953 49.6033 297.352 50.7009C296.419 51.0119 295.719 51.3508 294.794 51.6593C292.646 52.6138 290.26 53.091 287.755 53.091Z" fill="#1A1A1A"/>
<path d="M52.5678 31.5782C52.5678 30.5044 52.2099 29.3114 51.7327 28.3569C51.3747 27.7604 50.9154 27.2832 49.2451 27.2832L48.58 23.704L47.4863 20.1348L48.2728 20.0055C49.2272 19.7669 50.301 19.7669 51.0168 19.7669C53.5222 19.7669 55.1925 20.0055 56.3856 20.7214C57.8172 21.1986 58.7717 22.0337 59.8454 23.2268C60.9192 24.7778 61.3964 25.9708 61.635 27.1639C61.8736 28.4762 62.1122 30.0272 62.1122 31.5782V38.7365C62.1122 39.2137 62.1122 40.1682 62.2316 40.5261C62.7088 41.5999 63.3053 42.6736 63.9018 43.7474C64.4984 44.7018 65.4528 45.2983 66.5265 46.0142C67.3617 46.4914 68.6741 46.8493 70.4636 46.8493C72.2532 46.8493 73.4463 46.6107 74.2814 46.0142C75.2359 45.4176 76.1903 44.8211 77.0254 43.7474C77.8606 42.9122 78.3378 41.8385 78.6957 40.6454C79.1729 39.333 79.2922 38.2593 79.2922 37.0662C79.2922 35.9925 79.0536 34.7994 78.6957 33.4871C78.2185 32.4133 77.8606 31.4589 77.0254 30.3851C76.4289 29.6693 75.4745 28.8342 74.2814 28.1183C73.4463 27.6411 72.1339 27.2832 70.4636 27.2832C68.7934 27.2832 67.481 27.5218 66.6459 28.1183C65.8107 28.4762 64.9756 29.0728 64.379 29.7886L63.5439 30.6237V29.4307C63.5439 28.1183 63.3053 27.1639 63.0667 26.0901C62.8281 24.6585 62.4702 23.5847 61.635 22.6303L60.9192 21.9144L61.635 21.6758C61.9929 21.5565 62.2315 21.4372 62.5895 21.3179C62.9474 21.1986 63.3053 20.96 63.6632 20.8407C65.8107 20.0055 68.3161 19.5283 70.7022 19.5283C73.327 19.5283 75.5938 20.0055 77.8606 20.8407C80.366 21.7951 82.2749 22.9882 83.7066 24.4198C85.4961 26.2094 86.6892 27.999 87.5243 30.0272C88.4788 32.294 88.8367 34.5608 88.8367 37.1855C88.8367 39.8103 88.3595 42.0771 87.5243 44.3439C86.6892 46.3721 85.4961 48.1617 83.7066 49.9512C81.917 51.5022 80.1274 52.6953 77.8606 53.5304C75.7131 54.3655 73.2077 54.8428 70.7022 54.8428C68.0775 54.8428 65.8107 54.3655 63.5439 53.5304C62.7088 53.1725 61.9929 52.9339 61.3964 52.576V71.0683L52.5678 72.5V31.5782Z" fill="#1A1A1A"/>
<path d="M109.324 54.6419C106.937 54.6419 104.79 54.284 102.284 53.5682C100.137 52.9716 98.2281 51.7786 96.6771 50.2276C95.0069 48.7959 93.6945 47.0064 92.8594 44.8589C92.0242 42.5921 91.547 40.2059 91.547 37.5812C91.547 34.9565 92.0242 32.4511 92.8594 30.3036C93.6945 28.2754 94.8875 26.4858 96.6771 24.6962C98.2281 23.1452 100.018 22.0715 102.284 21.117C104.551 20.1626 106.818 19.8047 109.204 19.8047C111.352 19.8047 113.38 20.1626 115.647 20.8784C117.794 21.5943 119.584 22.7873 120.896 24.219C122.328 25.8893 123.402 27.6789 124.237 29.8264C125.191 32.2125 125.549 34.8372 125.31 37.5812V40.2059H102.642L102.979 36.8057L102.642 33.4055H116.482C116.482 32.4511 116.243 31.6159 116.124 31.0194C115.885 30.1843 115.527 29.3491 114.931 28.8719C114.334 28.2754 113.499 27.5595 112.664 27.2016C111.59 26.8437 110.636 26.6051 109.443 26.6051C107.057 26.6051 105.267 27.2016 103.716 28.6333C102.046 30.065 101.211 31.7352 101.091 34.0021C101.091 34.0021 100.853 36.8654 101.091 39.7287C101.091 41.0411 101.569 41.9955 101.927 42.8307C102.284 43.4272 102.762 44.3816 103.716 45.0975C104.551 45.9326 105.386 46.2905 106.46 46.7677C107.176 47.1257 108.369 47.3643 109.562 47.3643C111.352 47.3643 113.022 47.0064 114.334 46.2905C114.692 46.0519 116.601 44.8589 117.198 44.2623L117.556 43.9044L122.566 49.8697L122.209 50.2276C118.51 53.0909 114.334 54.6419 109.324 54.6419Z" fill="#1A1A1A"/>
<path d="M165.202 53.6953V7.7627H181.666C194.551 7.7627 195.506 17.6651 195.506 20.767C195.506 22.5329 195.483 23.8148 195.14 25.5323C192.295 24.1097 188.871 24.0154 185.723 23.8689C185.723 22.8981 185.961 21.9534 185.961 21.0056C185.961 20.4091 185.603 19.216 185.603 19.216C185.603 19.216 185.365 18.7388 185.245 18.5002C185.126 18.2616 184.888 17.9037 184.768 17.6651C184.649 17.4264 184.052 16.9492 183.695 16.7106L183.337 16.5913C182.859 16.472 182.501 16.3527 182.144 16.3527H175.105V44.986H186.677C188.109 44.986 191.569 44.3895 191.569 39.498C191.569 34.6064 187.87 34.6064 185.842 34.6064H177.61V26.2551H184.888C187.035 26.2551 194.313 26.4937 196.937 29.5956C200.994 33.2941 201.232 38.6628 201.232 40.0945C201.232 42.3613 200.875 44.3895 200.039 46.537C199.085 48.2073 198.13 49.6389 196.818 50.7127C195.386 51.9058 194.074 52.6216 192.165 52.9795C190.614 53.4567 188.705 53.6953 186.677 53.6953H165.202Z" fill="#1A1A1A"/>
<path fill-rule="evenodd" clip-rule="evenodd" d="M9.4248 13.8392C18.0148 6.32293 31.1384 6.44224 39.6091 14.555C48.557 23.0257 48.9149 37.3424 40.3249 46.2903C32.0929 54.8803 18.492 55.5961 9.54411 47.8413L15.9866 41.0409C21.2361 45.2166 28.8716 44.7393 33.5245 39.8478C38.5354 34.5984 38.2968 26.3663 33.0473 21.3554C28.2751 16.8218 21.1167 16.5832 16.1059 20.401L9.4248 13.8392Z" fill="#1A1A1A"/>
<path d="M14.436 23.9802L7.15833 16.7025L0 23.7415L7.27764 31.0192L0 38.2968L7.03903 45.3358L14.3167 38.0582L21.475 31.0192L14.436 23.9802Z" fill="#01DB83"/>
</svg>
