<svg width="374" height="70" viewBox="0 0 374 70" fill="none" xmlns="http://www.w3.org/2000/svg">
<path d="M13.3634 54.091C8.48463 54.091 4.66645 52.8182 0.848267 50.0607V49.4243L3.60584 43.697C5.51493 45.394 8.69675 47.3031 11.6664 47.3031C13.9998 47.3031 16.3331 46.4546 16.3331 43.697C16.3331 41.3637 14.2119 40.5152 11.6664 39.4546C10.818 39.0304 9.75736 38.6061 8.69675 38.1819C4.45433 36.0607 1.48463 33.5152 1.48463 28.2122C1.48463 18.6667 10.6058 17.6061 14.6361 17.6061C18.8786 17.6061 23.121 18.6667 25.8786 20.3637V21.2122L23.121 26.9394C20.9998 25.4546 18.4543 24.6061 15.9089 24.6061C12.5149 24.6061 11.8786 26.3031 11.8786 27.7879C11.8786 30.1213 13.9998 30.9697 16.9695 32.0304C17.6058 32.2425 18.2422 32.4546 18.8786 32.8788C23.9695 35.0001 26.9392 37.3334 26.9392 43.0607C26.7271 52.6061 18.4543 54.091 13.3634 54.091ZM45.818 54.091C31.6058 54.091 29.4846 42.6364 29.4846 35.8485C29.4846 27.7879 32.2422 18.0304 45.1816 18.0304C57.4846 18.0304 60.0301 26.9394 60.0301 34.7879C60.0301 35.8485 59.818 37.7576 59.3937 39.0304C57.6968 39.0304 51.5452 39.0304 46.6664 38.8182H39.8786V39.2425C39.8786 41.1516 40.5149 47.5152 47.0907 47.5152C49.6361 47.5152 51.9695 46.4546 54.0907 44.1213L58.121 49.0001V49.6364C54.3028 52.394 50.4846 54.091 45.818 54.091ZM45.1816 25.0304C41.7877 25.0304 40.0907 27.7879 39.8786 33.3031V33.7273H50.0604V33.3031C50.2725 27.7879 48.5755 25.0304 45.1816 25.0304ZM79.3331 68.9394C74.6664 68.9394 69.9998 67.6667 66.1816 65.5455L68.7271 58.9697H69.1513C71.2725 60.2425 74.2422 61.9394 77.8483 61.9394C81.8786 61.9394 84.2119 59.8182 84.2119 56.2122C84.2119 55.7879 84.424 52.6061 84.6361 50.4849V50.2728L83.7877 49.8485L83.5755 50.0607C81.2422 52.1819 78.9089 54.091 74.8786 54.091C67.2422 54.091 63.424 48.3637 63.424 36.0607C63.424 27.3637 66.3937 18.2425 74.8786 18.2425C78.0604 18.2425 81.2422 19.7273 83.7877 22.4849L83.9998 22.697L84.6361 22.4849L85.2725 19.7273L85.9089 19.091L94.6058 19.3031C94.6058 20.5758 94.3937 23.7576 94.3937 25.4546V55.1516C94.6058 67.8788 82.9392 68.9394 79.3331 68.9394ZM79.3331 25.6667C74.2422 25.6667 74.2422 33.3031 74.2422 35.8485C74.2422 39.2425 74.2422 46.8788 78.4846 46.8788C80.1816 46.8788 82.3028 45.6061 83.7877 43.4849V43.2728L83.9998 28.0001V27.7879C82.727 26.7273 81.0301 25.6667 79.3331 25.6667ZM137.03 53.0304C137.03 51.5455 137.454 31.394 137.454 31.1819C137.454 27.7879 137.03 25.6667 134.272 25.6667C132.788 25.6667 130.879 26.5152 129.394 27.7879L129.182 27.5758V52.8182H118.788C118.788 51.3334 119 31.1819 119 30.9697C119 27.5758 118.576 25.4546 115.818 25.4546C114.545 25.4546 112.424 26.3031 110.939 27.5758L110.727 27.7879L110.939 53.0304H100.333V27.5758C100.333 25.2425 100.121 20.7879 100.121 18.8788L109.242 18.6667L109.879 19.091L110.303 22.0607L110.939 22.2728L111.151 22.0607C114.121 19.5152 118.363 17.8182 121.545 17.8182C124.515 17.8182 126.848 19.3031 128.121 22.2728L128.333 22.9091L128.757 22.4849C131.939 19.7273 136.182 18.0304 139.788 18.0304C144.879 18.0304 147.848 21.6364 147.848 28.2122C147.848 28.6364 147.636 51.5455 147.636 53.0304H137.03ZM168.848 54.091C154.636 54.091 152.515 42.6364 152.515 35.8485C152.515 27.7879 155.273 18.0304 168.212 18.0304C180.515 18.0304 183.06 26.9394 183.06 34.7879C183.06 35.8485 182.848 37.7576 182.424 39.0304C180.727 39.0304 174.576 39.0304 169.697 38.8182H162.909V39.2425C162.909 41.1516 163.545 47.5152 170.121 47.5152C172.666 47.5152 175 46.4546 177.121 44.1213L181.151 49.0001V49.6364C177.333 52.394 173.515 54.091 168.848 54.091ZM168.212 25.0304C164.818 25.0304 163.121 27.7879 162.909 33.3031V33.7273H173.091V33.3031C173.091 27.7879 171.606 25.0304 168.212 25.0304ZM206.182 53.0304C206.182 51.5455 206.606 31.394 206.606 31.1819C206.606 27.5758 205.969 25.6667 203.212 25.6667C201.727 25.6667 199.818 26.5152 197.909 27.7879L197.697 28.0001L197.909 53.2425H187.303V27.5758C187.303 25.2425 187.091 21.0001 187.091 18.8788L196.212 18.6667L196.848 19.091L197.272 22.0607L197.909 22.2728L198.121 22.0607C201.303 19.5152 205.757 17.8182 209.151 17.8182C214.454 17.8182 217.212 21.4243 217.212 28.0001C217.212 28.4243 217 51.3334 217 52.8182H206.182V53.0304ZM233.969 53.0304C225.273 53.0304 224.424 47.7273 224.424 42.4243C224.424 40.9394 224.424 33.3031 224.636 26.7273V26.3031H220.818L221.03 18.8788H224.848V9.12126L225.272 8.69702H235.242C235.242 9.96975 235.242 13.7879 235.03 18.4546V18.8788H240.757L240.545 26.3031H234.818V26.7273C235.03 33.091 235.03 39.8788 235.03 41.1516C235.03 44.7576 235.03 46.0304 238.424 46.0304H240.333V52.6061L239.909 53.0304H233.969Z" fill="black"/>
<path d="M248.606 53.0302C248.606 50.0605 248.606 33.0908 248.818 26.7272V26.3029H244.788L245 18.8787H248.818V18.4545C248.818 18.2423 248.606 12.5151 248.606 12.5151C248.606 3.18173 254.545 1.06052 259.424 1.06052C262.394 1.06052 264.939 1.48476 267.272 2.54536V3.39385L265.151 9.33324C264.091 8.69688 263.03 8.48476 262.182 8.48476C259.848 8.48476 259 10.1817 259 13.7878V18.8787H265.151L264.939 26.3029H259V26.7272C259.212 32.8787 259.212 50.0605 259.212 53.0302H248.606ZM275.757 53.8787C268.333 53.8787 267.485 46.6666 267.485 43.6969C267.485 32.6666 276.182 32.0302 285.515 31.3938H285.939L286.151 30.9696V29.0605C286.151 26.5151 284.666 25.0302 281.485 25.0302C277.454 25.0302 273.848 26.0908 271.303 27.1514L268.969 20.9999V20.5757C274.06 18.6666 279.363 17.8181 284.879 17.8181C292.727 17.8181 296.757 21.4242 296.757 28.4242V45.1817C296.757 47.9393 296.969 51.3332 296.969 53.0302H288.272L287.636 52.3938L286.788 49.6363L286.151 49.4241L285.939 49.6363C282.969 52.606 279.788 53.8787 275.757 53.8787ZM285.303 36.4848C280 36.6969 277.454 36.6969 277.454 42.212C277.454 46.4545 279.151 47.3029 280.636 47.3029C282.333 47.3029 284.454 46.2423 285.939 44.7575L286.151 44.5454V37.1211L285.939 36.909L285.515 36.6969C285.515 36.4848 285.303 36.4848 285.303 36.4848ZM310.757 53.8787C305.03 53.8787 302.272 50.4848 302.272 43.6969C302.272 43.2726 302.485 20.3635 302.485 18.6666H312.666L313.091 19.0908C313.091 20.1514 312.879 40.5151 312.879 40.9393C312.879 44.5454 314.151 46.4545 316.272 46.4545C318.182 46.4545 320.515 45.3938 322 43.909L322.212 43.6969L322 18.4545H332.182L332.606 18.8787V44.5454C332.606 47.3029 332.818 50.6969 332.818 52.3938H324.121L323.485 51.7575L322.636 48.7878L321.788 48.5757L321.575 48.7878C318.606 52.3938 315.212 53.8787 310.757 53.8787ZM338.757 53.0302C338.545 51.3332 338.545 47.5151 338.545 45.1817V10.3938C338.545 8.06052 338.545 4.45446 338.333 2.54536L348.727 2.33324L349.151 2.75749V45.1817C349.151 47.7272 349.363 51.3332 349.363 53.0302H338.757ZM366.121 53.0302C357.424 53.0302 356.575 47.7272 356.575 42.4241C356.575 40.9393 356.575 33.3029 356.788 26.7272V26.3029H352.969L353.182 18.8787H357V9.12112L357.424 8.69688H367.394C367.394 9.96961 367.394 13.7878 367.182 18.4545V18.8787H372.909L372.697 26.3029H366.969V26.7272C367.182 33.0908 367.182 39.8787 367.182 41.1514C367.182 44.7575 367.182 46.0302 370.575 46.0302H372.485V52.606L372.06 53.0302H366.121Z" fill="#009A61"/>
</svg>
