<svg width="457" height="60" viewBox="0 0 457 60" fill="none" xmlns="http://www.w3.org/2000/svg">
<path d="M136.767 19.8073C133.089 16.1074 127.377 14.2187 119.589 14.2187H102.522C101.366 14.2187 100.572 14.4515 100.029 14.8655C99.4852 15.2407 99.2205 15.8875 99.2205 16.7931V56.5347C99.2205 57.4403 99.4852 58.0871 100.029 58.5011C100.572 58.8762 101.366 59.1091 102.522 59.1091H119.589C127.377 59.1091 133.089 57.2203 136.767 53.5204C140.445 49.8205 142.284 44.1931 142.284 36.6768C142.284 29.1606 140.445 23.5331 136.767 19.8332V19.8073ZM125.956 47.5437C124.576 49.6265 122.319 50.6743 119.129 50.6743H115.061C114.141 50.6743 113.375 49.9628 113.375 49.0443V24.2705C113.375 23.3649 114.141 22.6405 115.061 22.6405H119.129C122.306 22.6405 124.576 23.7013 125.956 25.81C127.335 27.9316 128.032 31.5151 128.032 36.6509C128.032 41.7868 127.335 45.4091 125.956 47.5307V47.5437Z" fill="#0F1835"/>
<path d="M210.803 54.0621C210.26 52.859 209.647 52.251 208.923 52.251C208.616 52.251 208.226 52.2898 207.697 52.3674C207.195 52.4838 206.777 52.5226 206.512 52.5226C205.704 52.5226 205.175 52.3286 204.827 51.9534C204.52 51.6171 204.367 51.0479 204.367 50.2587V33.0788H207.669C208.63 33.0788 209.313 32.82 209.745 32.3284C210.163 31.798 210.358 31.0089 210.358 29.8704V28.7708C210.358 27.6712 210.163 26.8821 209.745 26.3517C209.327 25.8213 208.63 25.6013 207.669 25.6013H204.367V19.5599C204.367 18.3826 203.406 17.4383 202.221 17.4383H194.322C193.166 17.4383 192.218 18.3826 192.218 19.5211L192.149 25.6013H190.073C189.112 25.6013 188.429 25.8342 188.039 26.3517C187.621 26.8821 187.384 27.6712 187.384 28.7708V29.8704C187.384 31.0089 187.621 31.798 188.039 32.3284C188.429 32.82 189.112 33.0788 190.073 33.0788H192.023V50.0259C192.023 53.3894 192.985 55.8862 194.935 57.5421C196.886 59.1721 198.697 60.0001 202.291 60.0001C204.437 60.0001 206.512 59.7413 208.574 59.2109C210.608 58.6805 211.598 57.8914 211.598 56.7918C211.598 56.2225 211.333 55.317 210.79 54.075L210.803 54.0621Z" fill="#0F1835"/>
<path d="M306.177 25.4071H298.779C297.706 25.4071 296.787 26.1962 296.633 27.257L294.446 42.5871L294.028 46.1058C293.944 46.6362 293.917 47.2055 293.833 47.8394C293.749 48.4862 293.68 49.0813 293.568 49.6893H293.22C292.718 46.481 292.259 44.0618 291.883 42.393L288.469 27.1018C288.232 26.1186 287.355 25.4071 286.366 25.4071H278.16C277.157 25.4071 276.279 26.1186 276.056 27.1018L272.684 42.2507C272.071 44.7475 271.612 47.1925 271.222 49.6893H270.873L269.954 42.5871L267.878 27.257C267.725 26.1962 266.805 25.4071 265.733 25.4071H257.945C256.872 25.4071 256.064 26.4291 256.37 27.4899L264.841 57.7101C265.106 58.5768 265.955 59.1849 266.875 59.1849H274.05C274.969 59.1849 275.819 58.5768 276.084 57.7101L281.183 40.9829C281.294 40.6465 281.42 39.8057 281.531 38.4861C281.615 37.9557 281.726 37.1278 281.921 36.0669H282.27C282.381 36.4033 282.506 37.2054 282.618 38.4861C282.701 39.0941 282.813 39.9221 283.008 40.9829L288.191 57.7101C288.455 58.5768 289.305 59.1849 290.225 59.1849H297.4C298.361 59.1849 299.169 58.5768 299.434 57.6713L307.793 27.4123C308.057 26.3903 307.291 25.4071 306.218 25.4071H306.177Z" fill="#0F1835"/>
<path d="M346.508 27.3266C344.78 25.813 342.259 25.0627 338.957 25.0627C336.574 25.0627 334.429 25.4767 332.548 26.2658C330.667 27.0938 329.065 28.1546 327.756 29.3965V12.8892C327.756 11.712 326.794 10.7806 325.568 10.7806H316.443C315.259 10.7806 314.297 11.7249 314.297 12.8892V57.0035C314.297 58.2066 315.3 59.1898 316.485 59.1898H325.526C326.752 59.1898 327.756 58.2066 327.756 57.0035V34.9075C329.023 33.5492 330.472 32.8635 332.158 32.8635C333.384 32.8635 334.303 33.1223 334.847 33.6527C335.39 34.1831 335.655 35.011 335.655 36.1495V57.0035C335.655 58.2066 336.658 59.1898 337.842 59.1898H346.884C348.11 59.1898 349.113 58.2066 349.113 57.0035V33.9632C349.113 31.0524 348.235 28.8273 346.508 27.3137V27.3266Z" fill="#0F1835"/>
<path d="M410.883 10.7806H401.758C400.574 10.7806 399.571 11.7249 399.571 12.8892V57.0035C399.571 58.2066 400.574 59.1898 401.8 59.1898H410.841C412.067 59.1898 413.029 58.2066 413.029 57.0035V12.8892C413.029 11.712 412.067 10.7806 410.883 10.7806Z" fill="#0F1835"/>
<path d="M455.198 45.1223C456.313 44.1391 456.271 42.8196 456.271 42.2892C456.271 36.7005 454.961 32.4314 452.328 29.4818C449.681 26.5323 445.46 25.0575 439.594 25.0575C433.729 25.0575 429.048 26.377 425.788 29.0549C422.528 31.7328 420.926 36.2348 420.926 42.535C420.926 48.1236 422.57 52.3539 425.872 55.2647C429.132 58.1367 434.272 59.5726 441.211 59.5726C442.855 59.5726 444.819 59.4174 447.006 59.081C449.194 58.7447 451.074 58.2143 452.676 57.5674C454.293 56.8818 455.128 56.0927 455.128 55.0707C455.128 54.6567 454.864 54.0486 454.362 53.2595C453.819 52.4704 453.206 51.7847 452.481 51.1379C451.715 50.5299 451.019 50.2323 450.447 50.2323C450.211 50.2323 449.57 50.3876 448.567 50.7627C447.536 51.1379 446.491 51.4484 445.418 51.7071C444.345 51.94 443.119 52.0823 441.81 52.0823C439.664 52.0823 437.937 51.6295 436.711 50.6851C435.443 49.7795 434.76 48.2271 434.635 46.0408H451.701C452.927 46.0408 454.111 46.0796 455.184 45.0964L455.198 45.1223ZM434.119 40.3616C434.356 37.2309 434.927 35.6009 435.763 34.359C436.641 33.1559 437.867 32.509 439.483 32.509C441.099 32.509 442.353 33.1947 443.091 34.4754C443.816 35.7561 444.164 37.3473 444.164 40.3616H434.119Z" fill="#0F1835"/>
<path d="M177.685 28.007C174.885 26.0407 170.357 25.0575 164.158 25.0575C161.817 25.0575 159.518 25.2515 157.289 25.6267C155.032 26.0407 153.221 26.5323 151.8 27.2179C150.379 27.8647 149.696 28.5763 149.696 29.3007C149.696 29.7535 149.961 30.4391 150.504 31.2671C151.048 32.095 151.661 32.8195 152.385 33.4534C153.11 34.1002 153.764 34.4366 154.377 34.4366C154.795 34.4366 155.408 34.2425 156.258 33.9062C157.526 33.4922 158.641 33.1558 159.672 32.923C160.675 32.6901 161.859 32.5866 163.154 32.5866C165.077 32.5866 166.456 32.8842 167.334 33.5698C168.212 34.2167 168.644 35.2257 168.644 36.597V37.619C154.684 37.5802 147.746 41.5518 147.746 49.5596C147.746 52.6903 148.777 55.1095 150.922 56.9206C153.026 58.6929 156.063 59.5985 160.006 59.5985C162.346 59.5985 164.339 59.2233 166.024 58.4601C167.71 57.6709 169.702 55.8857 169.702 55.8857V57.5157C169.702 57.5157 169.702 59.5985 171.848 59.5985H179.789C180.945 59.5985 181.893 58.6541 181.893 57.5157V36.1701C181.893 32.6901 180.514 29.9734 177.671 28.007H177.685ZM168.644 50.6334C168.142 51.2802 167.529 51.7718 166.721 52.147C165.871 52.5609 164.993 52.755 164.074 52.755C162.695 52.755 161.622 52.3798 160.814 51.6942C160.048 50.9826 159.658 50.0383 159.658 48.8222C159.658 45.0447 162.653 43.1171 168.63 43.1171V50.6334H168.644Z" fill="#0F1835"/>
<path d="M246.176 28.007C243.376 26.0407 238.848 25.0575 232.648 25.0575C230.307 25.0575 228.009 25.2515 225.78 25.6267C223.523 26.0407 221.712 26.5323 220.29 27.2179C218.869 27.8647 218.187 28.5763 218.187 29.3007C218.187 29.7535 218.451 30.4391 218.995 31.2671C219.538 32.095 220.151 32.8195 220.876 33.4534C221.6 34.1002 222.255 34.4366 222.868 34.4366C223.286 34.4366 223.899 34.2425 224.749 33.9062C226.016 33.4922 227.131 33.1558 228.162 32.923C229.165 32.6901 230.349 32.5866 231.645 32.5866C233.568 32.5866 234.947 32.8842 235.825 33.5698C236.702 34.2167 237.134 35.2257 237.134 36.597V37.619C223.174 37.5802 216.236 41.5518 216.236 49.5596C216.236 52.6903 217.267 55.1095 219.413 56.9206C221.516 58.6929 224.554 59.5985 228.496 59.5985C230.837 59.5985 232.829 59.2233 234.515 58.4601C236.201 57.6709 238.193 55.8857 238.193 55.8857V57.5157C238.193 57.5157 238.193 59.5985 240.338 59.5985H248.28C249.436 59.5985 250.383 58.6541 250.383 57.5157V36.1701C250.383 32.6901 249.004 29.9734 246.162 28.007H246.176ZM237.12 50.6334C236.619 51.2802 236.006 51.7718 235.198 52.147C234.348 52.5609 233.47 52.755 232.551 52.755C231.171 52.755 230.099 52.3798 229.29 51.6942C228.524 50.9826 228.134 50.0383 228.134 48.8222C228.134 45.0447 231.129 43.1171 237.106 43.1171V50.6334H237.12Z" fill="#0F1835"/>
<path d="M386.563 28.007C383.763 26.0407 379.235 25.0575 373.035 25.0575C370.695 25.0575 368.396 25.2515 366.167 25.6267C363.91 26.0407 362.099 26.5323 360.678 27.2179C359.257 27.8647 358.574 28.5763 358.574 29.3007C358.574 29.7535 358.839 30.4391 359.382 31.2671C359.925 32.095 360.538 32.8195 361.263 33.4534C361.987 34.1002 362.642 34.4366 363.255 34.4366C363.673 34.4366 364.286 34.2425 365.136 33.9062C366.404 33.4922 367.518 33.1558 368.549 32.923C369.552 32.6901 370.737 32.5866 372.032 32.5866C373.955 32.5866 375.334 32.8842 376.212 33.5698C377.089 34.2167 377.521 35.2257 377.521 36.597V37.619C363.562 37.5802 356.624 41.5518 356.624 49.5596C356.624 52.6903 357.655 55.1095 359.8 56.9206C361.904 58.6929 364.941 59.5985 368.884 59.5985C371.224 59.5985 373.216 59.2233 374.902 58.4601C376.588 57.6709 378.58 55.8857 378.58 55.8857V57.5157C378.58 57.5157 378.58 59.5985 380.726 59.5985H388.667C389.823 59.5985 390.77 58.6541 390.77 57.5157V36.1701C390.77 32.6901 389.391 29.9734 386.549 28.007H386.563ZM377.507 50.6334C377.006 51.2802 376.393 51.7718 375.585 52.147C374.735 52.5609 373.857 52.755 372.938 52.755C371.558 52.755 370.486 52.3798 369.678 51.6942C368.911 50.9826 368.521 50.0383 368.521 48.8222C368.521 45.0447 371.517 43.1171 377.493 43.1171V50.6334H377.507Z" fill="#0F1835"/>
<path d="M72.766 31.4415C71.2335 23.8347 65.41 16.2667 57.1206 14.1192C53.2057 13.0972 49.1794 12.4763 45.2089 13.0972C39.037 14.0675 33.6175 16.1503 29.229 20.3935C25.1609 24.3392 21.5804 30.4712 20.3126 35.8141C20.2012 36.2669 20.0758 36.7326 19.9225 37.1724C19.5185 38.3626 18.1393 39.1388 16.7739 38.8154C16.1052 38.6602 15.4226 38.285 14.9349 37.8322C14.6563 37.5735 14.6842 35.7494 14.6842 35.3742C14.6424 33.3173 14.7678 31.9201 13.7229 30.0961C13.3049 29.3716 12.1207 28.259 11.5356 27.8839C9.26468 30.4454 8.99997 33.3173 9.20895 36.3574C5.40556 35.6459 1.33746 36.047 0 37.2242C0.0975229 37.4182 1.47678 39.6045 3.85912 40.4713C5.99069 41.2475 8.05261 41.0017 10.2956 40.7171C11.8142 40.5231 12.6083 42.2178 13.5 43.1104C14.8514 44.4558 16.2306 45.7883 17.6517 47.069C20.4798 49.6305 23.503 52.0367 26.8188 54.0549C34.3141 58.5698 43.6345 60.6655 52.4116 58.4016C56.8837 57.2502 61.328 55.1157 64.9503 52.4766C68.8094 49.6823 72.0555 45.6848 73.0447 41.1311C73.7413 37.9616 73.4069 34.611 72.78 31.4544L72.766 31.4415ZM54.2506 39.5399C54.6128 38.8801 55.3652 38.4273 56.215 38.4273C57.441 38.4273 58.4302 39.3458 58.4302 40.4842C58.4302 41.6227 57.441 42.5282 56.215 42.5282C55.3373 42.5282 54.571 42.0496 54.2228 41.351C54.0138 41.1052 53.8884 40.8206 53.8884 40.5231C53.8884 40.1738 54.0277 39.8245 54.2506 39.5399ZM65.6051 47.7676C65.2429 48.1557 64.8667 48.5179 64.4766 48.8802C61.1608 51.8815 57.037 54.0807 52.5788 55.2321C49.1516 56.1118 45.3064 56.6293 41.7537 56.28C40.7925 56.1894 37.7553 55.8013 37.5881 55.5814C38.7723 55.465 39.9705 55.4003 41.1408 55.2192C41.5866 55.1545 42.0324 55.0769 42.4782 55.0122C47.2568 54.223 51.8961 52.8647 55.8528 50.1868C56.7444 49.5917 57.5385 48.906 58.3605 48.2463C59.0989 47.6382 60.0323 47.3019 60.9797 47.0949C62.9441 46.6809 64.8528 46.0729 66.7754 45.5554C66.9286 45.5166 67.054 45.4519 67.3605 45.3355C66.8868 46.2152 66.2877 47.0302 65.5911 47.7806L65.6051 47.7676Z" fill="#2669B2"/>
<path d="M45.6003 11.652C45.6003 11.652 45.5306 11.3027 45.5446 11.2381C45.5585 9.36224 45.5446 7.48642 45.9904 5.6494C46.2272 4.71796 46.6313 3.89001 47.2025 3.10087C47.8851 2.14355 48.735 1.35441 49.7938 0.772261C51.3402 -0.094499 52.9702 -0.223866 54.656 0.345349C55.5058 0.629957 55.9099 1.25092 55.9238 2.06593C55.9377 3.10087 55.5894 3.9935 54.8092 4.76971C53.834 5.7529 52.6498 6.39973 51.3681 6.95601C49.8077 7.62872 48.3309 8.4308 47.1467 9.5951C46.7288 9.99614 46.478 10.5524 46.1436 11.0311C46.0183 11.2122 46.0043 11.6909 45.5864 11.665L45.6003 11.652Z" fill="#2669B2"/>
<path d="M43.324 9.34412C43.2683 9.52523 42.9896 8.99483 42.906 8.89133C41.9726 7.72703 40.7745 6.91202 39.2977 6.43336C38.9912 6.32986 38.6707 6.23931 38.3782 6.10994C37.7791 5.86414 37.5423 5.54072 37.598 5.075C37.6537 4.51872 37.9463 4.09181 38.5314 3.9107C38.7683 3.84601 39.019 3.79427 39.2559 3.78133C41.3457 3.69077 42.3627 4.35055 43.1707 6.32986C43.5051 7.17075 43.4076 8.28331 43.324 9.34412Z" fill="#2669B2"/>
</svg>
